#!OML:ASF I:\Actors\actors\Patient Classification 1\Patient 1\Session 1\Subject1.ASF
:FULLY-SPECIFIED
:DEGREES
630
root 0.647062 17.53 8.84905 8.58726 -6.93084 -10.005
lowerback 0.847111 1.19494 6.92651
upperback -7.87324 2.0743 1.31346
thorax -8.61419 0.576229 -2.64383
lowerneck -14.1743 0.360006 1.0842
upperneck 32.4692 -3.94734 11.9336
head 13.6612 -0.0229908 3.964
rclavicle 6.55989e-015 1.19271e-014
rhumerus 69.1987 62.6804 -4.0607
rradius 121.977
rwrist -44.978
rhand 5.46431 -28.6966
rfingers 7.12502
rthumb 30.8127 -56.1336
lclavicle 6.55989e-015 1.19271e-014
lhumerus 31.7117 -64.3676 21.5553
lradius 91.1873
lwrist 68.5171
lhand 17.0262 -14.6894
lfingers 7.12502
lthumb 41.7554 9.98209
rfemur -5.96715 24.4118 25.9134
rtibia 3.27755
rfoot -8.93585 -18.8548
rtoes -2.54346
lfemur 4.68087 -37.5788 -10.6819
ltibia -3.34578
lfoot -20.1554 50.0802
ltoes 10.6912
631
root 0.643766 17.5282 8.8509 8.44959 -6.301 -10.0322
lowerback 0.901789 1.07462 6.68192
upperback -7.81096 1.90609 1.37052
thorax -8.59868 0.515703 -2.43577
lowerneck -14.2368 0.263 0.781748
upperneck 32.2028 -4.02342 12.0937
head 13.5712 -0.0794545 4.05668
rclavicle 1.03368e-014 1.27222e-014
rhumerus 66.714 63.4904 -3.16431
rradius 122.397
rwrist -42.5279
rhand 4.71081 -28.4536
rfingers 7.12502
rthumb 30.0941 -56.0238
lclavicle 1.03368e-014 1.27222e-014
lhumerus 32.0258 -64.1537 21.5257
lradius 90.9826
lwrist 68.3199
lhand 16.9063 -14.6901
lfingers 7.12502
lthumb 41.6429 10.0185
rfemur -5.76799 24.3292 26.0517
rtibia 3.29675
rfoot -9.1976 -19.2892
rtoes -1.89906
lfemur 4.74863 -38.1827 -10.6713
ltibia -3.39461
lfoot -19.9586 50.1024
ltoes 10.3479
632
root 0.642436 17.5271 8.85215 8.37471 -5.74825 -10.1197
lowerback 0.986839 0.987392 6.55176
upperback -7.79109 1.79586 1.46333
thorax -8.64155 0.474139 -2.25847
lowerneck -14.4316 0.194229 0.4173
upperneck 32.0869 -4.01595 12.1179
head 13.5648 -0.114906 4.12883
rclavicle -8.54774e-015 1.51076e-014
rhumerus 61.9033 63.7917 -5.01013
rradius 121.631
rwrist -42.2435
rhand 4.22937 -28.3787
rfingers 7.12502
rthumb 29.6347 -56.0315
lclavicle -8.54774e-015 1.51076e-014
lhumerus 31.8054 -63.9582 21.9456
lradius 90.9317
lwrist 68.1386
lhand 16.7098 -14.7787
lfingers 7.12502
lthumb 41.4585 9.99014
rfemur -5.6648 24.2707 26.2147
rtibia 3.34551
rfoot -9.38041 -19.6948
rtoes -1.35568
lfemur 4.74436 -38.7573 -10.5553
ltibia -3.43459
lfoot -19.7304 50.1984
ltoes 10.0679
633
root 0.642581 17.5281 8.84598 8.2881 -5.38646 -10.0242
lowerback 1.20298 0.904314 6.27604
upperback -7.78151 1.69203 1.52841
thorax -8.77257 0.441976 -2.0325
lowerneck -14.501 0.216314 0.489293
upperneck 31.867 -3.82448 11.6718
head 13.4502 -0.0837282 3.94937
rclavicle 1.12313e-014 1.03368e-014
rhumerus 56.635 63.4829 -7.82677
rradius 120.085
rwrist -41.7953
rhand 2.65768 -28.6362
rfingers 7.12502
rthumb 28.1334 -56.5456
lclavicle 1.12313e-014 1.03368e-014
lhumerus 30.8133 -63.7439 22.9206
lradius 91.0502
lwrist 68.2091
lhand 16.5866 -14.9308
lfingers 7.12502
lthumb 41.343 9.87561
rfemur -5.68823 24.2393 26.1057
rtibia 3.48993
rfoot -9.51356 -20.02
rtoes -1.0002
lfemur 4.68051 -39.2093 -10.6248
ltibia -3.40036
lfoot -19.6971 50.2926
ltoes 10.2179
634
root 0.644093 17.5302 8.83234 8.13335 -5.29249 -9.74297
lowerback 1.48658 0.792659 5.92529
upperback -7.71692 1.54202 1.54136
thorax -8.88437 0.391927 -1.81631
lowerneck -14.5748 0.444015 0.856701
upperneck 31.741 -3.39272 11.1143
head 13.3566 0.0773504 3.71624
rclavicle -9.44227e-015 2.54444e-014
rhumerus 52.7241 62.4704 -10.464
rradius 117.513
rwrist -42.0675
rhand 3.08682 -28.7752
rfingers 7.12502
rthumb 28.5435 -56.6165
lclavicle -9.44227e-015 2.54444e-014
lhumerus 29.1424 -63.4661 24.2637
lradius 91.2187
lwrist 68.5792
lhand 16.8533 -14.9188
lfingers 7.12502
lthumb 41.5932 9.80607
rfemur -5.74173 24.3543 25.7575
rtibia 3.68807
rfoot -9.6051 -20.2618
rtoes -0.662586
lfemur 4.66097 -39.4506 -10.9399
ltibia -3.3197
lfoot -20.0376 50.6578
ltoes 9.30544
635
root 0.648092 17.5334 8.83486 8.03611 -5.26285 -9.72761
lowerback 1.41663 0.641349 6.04977
upperback -7.62591 1.33855 1.58523
thorax -8.75815 0.289842 -1.82018
lowerneck -14.5753 0.758144 1.38229
upperneck 31.7397 -2.89903 10.5685
head 13.3032 0.287254 3.47711
rclavicle -1.88845e-015 -1.59028e-015
rhumerus 51.0935 61.1732 -12.1529
rradius 114.5
rwrist -43.5589
rhand 1.58058 -29.2328
rfingers 7.12502
rthumb 27.1034 -57.3072
lclavicle -1.88845e-015 -1.59028e-015
lhumerus 27.1746 -63.3222 25.6296
lradius 91.3665
lwrist 69.1058
lhand 17.3215 -14.8366
lfingers 7.12502
lthumb 42.0322 9.74269
rfemur -5.63444 24.3307 25.7658
rtibia 3.68165
rfoot -9.54899 -20.2806
rtoes -0.671811
lfemur 4.69727 -39.279 -10.9761
ltibia -3.30404
lfoot -19.9632 50.7929
ltoes 7.7373
636
root 0.65532 17.5379 8.85316 8.05232 -5.33651 -9.98282
lowerback 1.13557 0.542231 6.50186
upperback -7.62554 1.21505 1.69608
thorax -8.60297 0.205985 -1.93966
lowerneck -14.6163 0.909011 1.64901
upperneck 32.0472 -2.69722 10.2834
head 13.4238 0.380891 3.36281
rclavicle 6.4605e-015 -1.70955e-014
rhumerus 50.8781 59.8661 -13.466
rradius 111.595
rwrist -44.6154
rhand 0.025509 -29.8671
rfingers 7.12502
rthumb 25.6148 -58.1643
lclavicle 6.4605e-015 -1.70955e-014
lhumerus 25.4238 -63.5342 26.8176
lradius 91.4428
lwrist 69.6731
lhand 17.7019 -14.6658
lfingers 7.12502
lthumb 42.3885 9.79275
rfemur -5.46305 24.1415 26.1102
rtibia 3.54077
rfoot -9.43434 -20.0479
rtoes -1.15568
lfemur 4.75562 -38.7559 -10.728
ltibia -3.31574
lfoot -19.2463 50.1433
ltoes 8.24549
637
root 0.665275 17.5397 8.86899 8.01874 -5.88424 -9.95259
lowerback 1.14553 0.587573 6.52701
upperback -7.73673 1.2893 1.78298
thorax -8.72781 0.238029 -1.86733
lowerneck -14.3893 1.04746 2.06146
upperneck 32.3658 -2.53236 9.96952
head 13.4948 0.466304 3.20138
rclavicle 1.59028e-014 -2.06736e-014
rhumerus 51.4303 58.7902 -15.1389
rradius 108.707
rwrist -43.3444
rhand -0.772622 -30.3682
rfingers 7.12502
rthumb 24.8501 -58.7732
lclavicle 1.59028e-014 -2.06736e-014
lhumerus 24.151 -64.0589 27.7667
lradius 91.3411
lwrist 69.8418
lhand 17.4586 -14.3949
lfingers 7.12502
lthumb 42.1607 10.1411
rfemur -5.31335 24.0457 26.0891
rtibia 3.43559
rfoot -9.2801 -19.5072
rtoes -1.89074
lfemur 5.16198 -38.3858 -11.1111
ltibia -3.34724
lfoot -19.3876 49.9035
ltoes 9.69199
638
root 0.674771 17.5384 8.88131 7.94807 -6.9182 -9.63833
lowerback 0.967407 0.752239 6.61268
upperback -7.6841 1.47385 1.48824
thorax -8.5404 0.316197 -2.23957
lowerneck -14.3714 1.11429 2.48415
upperneck 32.7378 -2.64114 10.0693
head 13.6674 0.493647 3.17046
rclavicle 2.55438e-014 -2.3059e-014
rhumerus 52.1097 57.7812 -17.5289
rradius 105.923
rwrist -40.3867
rhand -0.529813 -29.3298
rfingers 7.12502
rthumb 25.0828 -57.7025
lclavicle 2.55438e-014 -2.3059e-014
lhumerus 24.1706 -64.5235 27.1089
lradius 91.1557
lwrist 69.4307
lhand 16.9439 -14.3199
lfingers 7.12502
lthumb 41.6782 10.3771
rfemur -5.23666 24.0601 25.6885
rtibia 3.37878
rfoot -9.02228 -18.6226
rtoes -2.64856
lfemur 5.87744 -38.2023 -12.0881
ltibia -3.42248
lfoot -20.6422 50.4321
ltoes 11.0098
639
root 0.679161 17.5351 8.88857 8.02961 -8.16257 -9.45712
lowerback 0.736473 0.964221 6.68807
upperback -7.6751 1.72436 1.27142
thorax -8.36427 0.430151 -2.52565
lowerneck -14.209 1.18153 3.00687
upperneck 33.0175 -2.69545 9.9788
head 13.76 0.526035 3.04526
rclavicle -1.82882e-014 -7.15625e-015
rhumerus 54.0852 57.2855 -19.6936
rradius 103.907
rwrist -38.568
rhand 0.308176 -28.5722
rfingers 7.12502
rthumb 25.8855 -56.8302
lclavicle -1.82882e-014 -7.15625e-015
lhumerus 24.1014 -64.9356 26.5911
lradius 90.9962
lwrist 68.6658
lhand 17.0998 -14.3267
lfingers 7.12502
lthumb 41.8243 10.322
rfemur -5.41412 24.1958 25.3742
rtibia 3.42242
rfoot -8.77201 -17.6082
rtoes -3.08739
lfemur 6.35202 -37.8139 -12.7373
ltibia -3.43856
lfoot -22.1011 50.9322
ltoes 12.6306
640
root 0.679627 17.5314 8.87438 8.21748 -9.54036 -9.39068
lowerback 0.845654 1.27508 6.79506
upperback -7.7443 2.14712 1.10336
thorax -8.4569 0.618279 -2.79747
lowerneck -13.9481 1.15771 3.39569
upperneck 32.9638 -2.74242 9.73148
head 13.6759 0.51068 2.86128
rclavicle -2.127e-014 1.19271e-014
rhumerus 56.2847 57.2361 -21.3036
rradius 103.208
rwrist -39.4006
rhand -2.11757 -30.624
rfingers 7.12502
rthumb 23.5606 -59.2009
lclavicle -2.127e-014 1.19271e-014
lhumerus 24.316 -65.2726 26.0788
lradius 90.9279
lwrist 68.1139
lhand 17.3341 -14.3481
lfingers 7.12502
lthumb 42.044 10.2272
rfemur -5.95842 24.5795 25.0914
rtibia 3.71592
rfoot -8.61273 -16.655
rtoes -3.11308
lfemur 6.39069 -37.0686 -12.8853
ltibia -3.33743
lfoot -23.2611 51.2087
ltoes 13.9222
641
root 0.680035 17.5321 8.82502 8.4193 -10.9948 -9.23939
lowerback 1.60091 1.66856 6.70148
upperback -7.91347 2.73233 0.93112
thorax -9.02739 0.880074 -3.00158
lowerneck -13.8554 1.08802 3.57204
upperneck 32.8983 -2.8313 9.56916
head 13.627 0.466255 2.7457
rclavicle 1.16289e-014 2.3059e-014
rhumerus 58.0379 57.3266 -22.9006
rradius 103.141
rwrist -40.1325
rhand -1.81885 -30.4479
rfingers 7.12502
rthumb 23.8471 -58.9876
lclavicle 1.16289e-014 2.3059e-014
lhumerus 25.0571 -65.4874 25.3927
lradius 90.9456
lwrist 68.1761
lhand 17.362 -14.2438
lfingers 7.12502
lthumb 42.0701 10.3227
rfemur -6.95315 25.2977 24.5648
rtibia 4.3727
rfoot -8.49009 -15.9649
rtoes -3.20218
lfemur 5.89269 -35.9566 -12.6694
ltibia -3.06468
lfoot -24.0307 51.1724
ltoes 14.8975
642
root 0.68131 17.5297 8.85729 8.71806 -11.6602 -9.41991
lowerback 0.984515 1.9494 7.24949
upperback -7.83839 3.07128 0.791978
thorax -8.51984 1.02242 -3.45311
lowerneck -13.8312 0.968883 3.69592
upperneck 32.791 -2.98653 9.43399
head 13.5784 0.390456 2.63966
rclavicle 1.27222e-014 -6.36111e-015
rhumerus 59.971 57.7381 -23.4879
rradius 104.228
rwrist -41.0584
rhand -1.39051 -31.2627
rfingers 7.12502
rthumb 24.2579 -59.7482
lclavicle 1.27222e-014 -6.36111e-015
lhumerus 26.1005 -65.5727 24.609
lradius 91.0567
lwrist 68.579
lhand 17.4904 -14.0699
lfingers 7.12502
lthumb 42.1904 10.456
rfemur -6.89734 24.9585 24.7516
rtibia 4.01627
rfoot -8.27353 -14.9922
rtoes -3.94301
lfemur 6.18596 -35.4912 -12.7394
ltibia -3.27941
lfoot -24.5323 51.3089
ltoes 15.4367
643
root 0.678228 17.5322 8.86006 9.04502 -12.042 -9.61768
lowerback 0.829619 2.10801 7.5099
upperback -7.87913 3.28132 0.733102
thorax -8.43776 1.10724 -3.66828
lowerneck -13.781 0.876817 3.8617
upperneck 32.6556 -3.09923 9.27418
head 13.5087 0.333543 2.52174
rclavicle -4.91992e-014 -1.74931e-014
rhumerus 62.3744 58.3436 -22.5942
rradius 106.089
rwrist -41.4978
rhand -1.41688 -31.7102
rfingers 7.12502
rthumb 24.2326 -60.199
lclavicle -4.91992e-014 -1.74931e-014
lhumerus 26.9893 -65.5273 23.9996
lradius 91.2258
lwrist 68.8127
lhand 17.4182 -14.1126
lfingers 7.12502
lthumb 42.1228 10.4361
rfemur -7.18867 24.9827 24.8667
rtibia 3.9418
rfoot -8.11353 -14.6148
rtoes -4.39299
lfemur 5.77934 -34.6811 -12.2044
ltibia -3.22197
lfoot -24.3787 50.9352
ltoes 15.4205
644
root 0.675304 17.5366 8.86018 9.2147 -12.0993 -9.69841
lowerback 0.820006 2.12765 7.48194
upperback -7.91356 3.30838 0.752093
thorax -8.46911 1.12116 -3.63477
lowerneck -13.7122 0.858056 3.87674
upperneck 32.5545 -3.10916 9.2575
head 13.4491 0.322909 2.50535
rclavicle 3.3694e-014 2.62396e-014
rhumerus 65.0684 59.1016 -20.2818
rradius 108.441
rwrist -41.8614
rhand -0.920809 -31.6472
rfingers 7.12502
rthumb 24.7081 -60.0717
lclavicle 3.3694e-014 2.62396e-014
lhumerus 27.4382 -65.3792 23.8636
lradius 91.4188
lwrist 68.8595
lhand 17.2146 -14.1869
lfingers 7.12502
lthumb 41.932 10.4259
rfemur -7.33993 25.0697 24.8791
rtibia 3.85514
rfoot -8.03751 -14.6474
rtoes -4.50898
lfemur 5.39774 -34.247 -11.8343
ltibia -3.08975
lfoot -24.0835 50.6407
ltoes 15.0201
